<svg width="23" height="23" viewBox="0 0 23 23" fill="none" xmlns="http://www.w3.org/2000/svg">
<path d="M20.504 0.315918H1.864C0.832977 0.315918 0 1.14889 0 2.17992V20.82C0 21.851 0.832977 22.684 1.864 22.684H20.504C21.5351 22.684 22.368 21.851 22.368 20.82V2.17992C22.368 1.14889 21.5351 0.315918 20.504 0.315918ZM17.4459 8.15056L9.65787 15.9735H9.65204C9.55302 16.0726 9.28507 16.2939 8.97634 16.2939C8.75499 16.2939 8.50452 16.1716 8.29482 15.9619L5.03281 12.6999C4.93961 12.6067 4.93961 12.4611 5.03281 12.3679L6.06966 11.331C6.11626 11.2844 6.17451 11.2611 6.23276 11.2611C6.29101 11.2611 6.34926 11.2844 6.39586 11.331L8.98216 13.9173L16.0887 6.75838C16.1353 6.71178 16.1935 6.68848 16.2518 6.68848C16.3159 6.68848 16.3741 6.71178 16.4149 6.75838L17.4343 7.81271C17.5391 7.91173 17.5391 8.05736 17.4459 8.15056Z" fill="#DDA81B"/>
</svg>
