<svg width="31" height="30" viewBox="0 0 31 30" fill="none" xmlns="http://www.w3.org/2000/svg">
<path d="M21.6387 2.78055C25.0252 2.79066 27.768 5.53343 27.7781 8.91991V21.1973C27.768 24.5838 25.0252 27.3266 21.6387 27.3367H9.36131C5.97484 27.3266 3.23207 24.5838 3.22195 21.1973L3.22195 8.91991C3.23207 5.53343 5.97484 2.79066 9.36132 2.78055L21.6387 2.78055ZM21.6387 0.325195H9.36131C4.63412 0.325195 0.766602 4.19272 0.766602 8.91991V21.1973C0.766602 25.9245 4.63412 29.792 9.36131 29.792H21.6387C26.3659 29.792 30.2334 25.9245 30.2334 21.1973V8.91991C30.2334 4.19272 26.3659 0.325195 21.6387 0.325195Z" fill="white"/>
<path d="M23.5553 8.87204C22.523 8.87204 21.6862 8.0352 21.6862 7.00291C21.6862 5.97062 22.523 5.13379 23.5553 5.13379C24.5876 5.13379 25.4244 5.97062 25.4244 7.00291C25.4255 7.49896 25.2289 7.975 24.8781 8.32576C24.5274 8.67652 24.0513 8.8731 23.5553 8.87204ZM15.456 10.1177C18.2089 10.1177 20.4405 12.3493 20.4405 15.1022C20.4405 17.8551 18.2089 20.0868 15.456 20.0868C12.7031 20.0868 10.4714 17.8551 10.4714 15.1022C10.4744 12.3506 12.7043 10.1206 15.456 10.1177ZM15.456 7.62573C11.3268 7.62573 7.97949 10.9731 7.97949 15.1022C7.97949 19.2314 11.3268 22.5787 15.456 22.5787C19.5851 22.5787 22.9325 19.2314 22.9325 15.1022C22.9325 10.9731 19.5851 7.62573 15.456 7.62573Z" fill="white"/>
</svg>
