<svg width="94" height="91" viewBox="0 0 94 91" fill="none" xmlns="http://www.w3.org/2000/svg">
<path d="M35.9438 41.3174H45.1194L45.0852 41.3516L8.37207 77.8965L35.9183 41.3516L35.9438 41.3174Z" fill="#DDA71B"/>
<path d="M50.9818 35.4808L46.3998 40.0428L46.0691 40.3708H36.6569L36.9049 40.0428L37.1987 39.6551L15.7485 12.6221L32.6366 12.6705L50.9818 35.4808Z" fill="#DDA71B"/>
<path d="M56.9037 42.227L78.3539 69.26L61.4658 69.2115L43.1206 46.4012L48.1931 41.3516L48.2272 41.3174H57.588L57.5623 41.3516L56.9037 42.227Z" fill="white"/>
<path d="M58.3009 40.3705H49.1768L49.5076 40.0426L85.7303 3.98242L58.549 40.0426L58.3009 40.3705Z" fill="white"/>
<circle cx="1.73504" cy="53.0612" r="1.73504" fill="#DDA71B"/>
<circle cx="2.86346" cy="33.8063" r="1.73504" fill="#DDA71B"/>
<circle cx="12.57" cy="15.3151" r="1.73504" fill="#DDA71B"/>
<path d="M3.40967 33.7812L2.56006 33.6851C3.63135 24.2357 11.6519 15.6949 11.9929 15.3359L12.613 15.9247C12.5315 16.0108 4.44873 24.6208 3.40967 33.7812Z" fill="#DDA71B"/>
<circle cx="90.3674" cy="33.8063" r="1.73504" fill="#DDA71B"/>
<circle cx="80.6608" cy="15.3151" r="1.73504" fill="#DDA71B"/>
<path d="M89.821 33.7812C88.7814 24.6146 80.6992 16.0108 80.6177 15.9247L81.238 15.3359C81.5789 15.6949 89.5991 24.2357 90.671 33.6851L89.821 33.7812Z" fill="#DDA71B"/>
<circle cx="91.6296" cy="52.7829" r="1.73504" fill="#DDA71B"/>
<path d="M82.5933 73.0203C82.4893 73.0203 82.3855 72.9829 82.3032 72.9068C82.1297 72.7469 82.1187 72.4763 82.2788 72.3026C88.5664 65.4821 90.9116 53.6891 90.9343 53.5708C90.98 53.3387 91.2044 53.1879 91.4361 53.2324C91.6677 53.2774 91.8194 53.5018 91.7744 53.7339C91.6787 54.2266 89.3582 65.8847 82.9075 72.8823C82.8235 72.9738 82.7085 73.0203 82.5933 73.0203Z" fill="#DDA71B"/>
<path d="M10.257 73.0205C10.1415 73.0205 10.0266 72.974 9.94217 72.8825C3.49149 65.8849 1.1713 54.2269 1.07584 53.7341C1.03067 53.5021 1.18216 53.2777 1.41422 53.2326C1.64542 53.1873 1.87051 53.339 1.91568 53.5711C1.93839 53.6894 4.28726 65.4866 10.5712 72.3029C10.7315 72.4765 10.7204 72.7471 10.5467 72.9071C10.4645 72.9829 10.3605 73.0205 10.257 73.0205Z" fill="#DDA71B"/>
<circle cx="32.9997" cy="2.53484" r="1.73504" fill="#DDA71B"/>
<circle cx="60.4255" cy="2.71258" r="1.73504" fill="#DDA71B"/>
<path d="M60.1877 3.21409C60.0598 3.16192 47.2539 -1.951 33.2473 3.0339L32.9604 2.22813C47.2849 -2.87026 60.3813 2.36898 60.512 2.42258L60.1877 3.21409Z" fill="#DDA71B"/>
<circle cx="31.1071" cy="87.4577" r="1.73504" fill="#DDA71B"/>
<circle cx="62.8278" cy="87.28" r="1.73504" fill="#DDA71B"/>
<path d="M45.8223 90.4855C41.317 90.4855 36.3741 89.9207 31.6455 88.2376L31.9324 87.4318C45.9618 92.4252 61.964 87.3705 62.1238 87.3184L62.3866 88.1326C62.278 88.1677 54.9485 90.4855 45.8223 90.4855Z" fill="#DDA71B"/>
<path d="M46.0688 40.3711L45.1194 41.3177H35.9438L36.6567 40.3711H46.0688Z" fill="#CECCCC"/>
<path d="M58.3011 40.3711L57.5883 41.3177H48.2275L49.177 40.3711H58.3011Z" fill="#CECCCC"/>
</svg>
