<svg xmlns="http://www.w3.org/2000/svg" width="45.532" height="45.361" viewBox="0 0 45.532 45.361">
  <path id="Path_48" data-name="Path 48" d="M143.762,12.5h12.476V7.717H143.762Zm-13.55-1.782c-2.393,2.393-2.979,5.591-2.979,9.668v.2h4.785v-.317c0-2.417.342-4.712,1.66-6.055,1.343-1.343,3.711-1.685,6.152-1.685h.366V7.741h-.244C135.876,7.741,132.6,8.327,130.212,10.72Zm39.575,0C167.4,8.327,164.124,7.741,160,7.741h-.22v4.785h.439c2.393,0,4.736.366,6.079,1.685,1.343,1.343,1.685,3.638,1.685,6.006v.366h4.761v-.146C172.742,16.311,172.18,13.088,169.788,10.72Zm-1.807,25.952h4.785V24.147h-4.785Zm-40.747,0h4.785V24.147h-4.785ZM169.788,50.1c2.393-2.393,2.954-5.591,2.954-9.717v-.171h-4.761V40.6c0,2.368-.366,4.663-1.685,5.981-1.343,1.343-3.687,1.709-6.079,1.709h-.439v4.785H160C164.124,53.078,167.4,52.492,169.788,50.1Zm-39.6,0c2.417,2.393,5.688,2.979,9.814,2.979h.2V48.293h-.439c-2.393,0-4.712-.366-6.055-1.709-1.343-1.318-1.685-3.613-1.685-5.981v-.391h-4.785v.171C127.234,44.509,127.82,47.731,130.188,50.1Zm13.574,2.979h12.476V48.293H143.762Z" transform="translate(-127.234 -7.717)" fill="#fff"/>
</svg>
