<svg xmlns="http://www.w3.org/2000/svg" width="22.77" height="22.77" viewBox="0 0 22.77 22.77">
  <path id="Path_47" data-name="Path 47" d="M13.371,3.387a10.891,10.891,0,0,1-4.4-.9A11.685,11.685,0,0,1,5.344.023,11.685,11.685,0,0,1,2.877-3.6,10.891,10.891,0,0,1,1.98-8,10.966,10.966,0,0,1,2.871-12.4a11.6,11.6,0,0,1,2.467-3.639A11.54,11.54,0,0,1,8.971-18.5a10.987,10.987,0,0,1,4.389-.885,11.028,11.028,0,0,1,4.395.885,11.452,11.452,0,0,1,3.633,2.461A11.736,11.736,0,0,1,23.854-12.4,10.9,10.9,0,0,1,24.75-8a10.953,10.953,0,0,1-.891,4.4A11.6,11.6,0,0,1,21.4.023,11.665,11.665,0,0,1,17.766,2.49,10.9,10.9,0,0,1,13.371,3.387Zm0-2.086A9.122,9.122,0,0,0,16.992.58a9.338,9.338,0,0,0,2.965-2,9.258,9.258,0,0,0,1.992-2.965A9.187,9.187,0,0,0,22.664-8a9.187,9.187,0,0,0-.715-3.621,9.258,9.258,0,0,0-1.992-2.965,9.24,9.24,0,0,0-2.971-1.992,9.229,9.229,0,0,0-3.627-.715,9.144,9.144,0,0,0-3.615.715A9.275,9.275,0,0,0,6.785-14.59a9.258,9.258,0,0,0-1.992,2.965A9.187,9.187,0,0,0,4.078-8a9.187,9.187,0,0,0,.715,3.621A9.258,9.258,0,0,0,6.785-1.418,9.338,9.338,0,0,0,9.75.58,9.122,9.122,0,0,0,13.371,1.3ZM8.379-2.426a.633.633,0,0,1-.516-.211.8.8,0,0,1-.176-.527,2.9,2.9,0,0,1,.34-1.172A5.521,5.521,0,0,1,9.07-5.777,5.825,5.825,0,0,1,10.84-7a5.966,5.966,0,0,1,2.52-.492A5.966,5.966,0,0,1,15.879-7a5.748,5.748,0,0,1,1.764,1.219,5.708,5.708,0,0,1,1.043,1.441,2.862,2.862,0,0,1,.346,1.172.814.814,0,0,1-.17.527.63.63,0,0,1-.521.211Zm4.98-5.953a2.694,2.694,0,0,1-2.01-.891,3.076,3.076,0,0,1-.826-2.191,3.035,3.035,0,0,1,.387-1.518,3.072,3.072,0,0,1,1.025-1.1,2.58,2.58,0,0,1,1.424-.41,2.608,2.608,0,0,1,1.43.41,2.958,2.958,0,0,1,1.02,1.1,3.11,3.11,0,0,1,.375,1.518,3.309,3.309,0,0,1-.375,1.582,2.877,2.877,0,0,1-1.02,1.107A2.562,2.562,0,0,1,13.359-8.379Z" transform="translate(-1.98 19.383)" fill="#fff"/>
</svg>
